<svg id="Capa_1" data-name="Capa 1" xmlns="http://www.w3.org/2000/svg" viewBox="0 0 396.76 396.76"><defs><style>.cls-1{fill:#fff;}</style></defs><title>hamburgo</title><path d="M282.79,198h46.4c3.43.48,6.86,1,10.29,1.43,35.56,4.74,66.22,19.83,91.53,45,28.78,28.66,44.58,63.58,47,104.25.29,4.8,1.63,8.39,5.33,11.19,2,1.5,3.89,3.77,6.11,4.18,9.05,1.68,15.09,8.46,14.49,17.07-.6,8.39-7.47,14.65-16.37,14.83-2.93.06-5.87,0-8,0-2.19,7.91-4.22,15.27-6.4,23.14,6.88,6,11.48,14,11.63,24.21s-3.89,18.66-10.7,25.79c7.22,13.95,5.21,26.6-4.5,38.54,7.95,5.37,9.27,13.24,8.94,21.86-.22,5.92,0,11.86,0,17.79C478.39,574.75,459.16,594,431.7,594q-42.15,0-84.29,0-83.9,0-167.79,0c-22.29,0-41.1-13.81-44.64-35.1-2.13-12.77-1.27-26.17-.49-39.22.26-4.37,4.43-8.52,7-13.17-9-11-10.69-23.7-3.6-37.4-.66-.76-1.36-1.52-2-2.31-8.26-10.11-11.57-21.3-6.12-33.72,2-4.49,5.53-8.27,8.25-12.44.59-.91,1.21-2.32.91-3.2-1.68-4.94-3.65-9.79-5.6-14.89-3.24-.2-6.91,0-10.38-.72-8.15-1.73-12.53-7.53-15-15.09v-7c2-5.93,4.84-11.55,11-13.6,5.23-1.75,8.82-5.12,12.21-8.91a9.83,9.83,0,0,0,2.42-5.64c1.38-28.5,9.39-54.93,24.79-79,23.77-37.07,57.29-60.58,100.09-70.69C266.45,200.06,274.68,199.29,282.79,198ZM171.85,395.69c7,.82,12.84.23,18.5-3.12,2.93-1.73,6.87-3.1,10.1-2.68,9.05,1.17,15-1.47,17.52-10.66.31-1.11,2.6-2.29,4-2.36,5.65-.27,11.38.34,17-.23s8.83,1.18,10.23,6.49c1.51,5.75,5.28,7.35,10.91,6.67,2.38-.29,3.35-1.06,4-3.16,1.26-4.18,2.84-8.27,4-12.48.76-2.75,2-3.91,5.06-3.79,6.82.28,13.73.73,20.46-.08,7.79-1,12.39,1.69,14.4,9.14.86,3.16,2.95,3.95,6.09,3.82,5.72-.24,11.46-.07,17.49-.07v12.65h8.08c1.05-3.08,2.1-6.1,3.11-9.13,3.33-9.94,3.39-9.23,13.62-10.16,8.53-.77,13.59,1.82,15.93,10,.32,1.12,1.33,2.82,2.15,2.9a33,33,0,0,0,10-.11c1.28-.27,2.43-2.9,2.95-4.66,2-6.55,5.95-8.95,12.83-8,5.45.71,11.61-1.22,16.44.64,4.53,1.75,7.64,7,11.57,10.55a9.71,9.71,0,0,0,4.34,1.82c7.39,1.58,12.31-1.08,14.2-8.63a1.54,1.54,0,0,1,.17-.34c3.33-6.39,1.84-5.54,8.12-3.38,10.36,3.55,20.64,7.34,31.92,5.9,2.08-.26,4.34-.67,3.8-3.14-.29-1.31-2.58-3.22-3.78-3.09-4.19.43-6.72-1.67-9.22-4.41a45.4,45.4,0,0,0-6.06-5.95,11,11,0,0,0-5.63-2.36c-6.39-.29-12.8-.11-19.28-.11v-13h18.49a142.68,142.68,0,0,0-14.05-56.51,146.17,146.17,0,0,0-50.94-58.92C384,224.62,366,216.89,346.48,213.57a248.54,248.54,0,0,0-75.45-.8c-31.94,4.36-59.12,18.81-81.87,41.51A142.79,142.79,0,0,0,151,321.64c-2.39,9.51-3.38,19.36-5.11,29.63H433.41v12.86h-5.2q-138.81,0-277.61-.14c-5.93,0-10.23,1.39-14,5.92-3,3.54-5.94,7.25-11.44,7.56-2.78.15-4.19,2.83-4.19,5.7,0,3,1.44,5.54,4.47,5.89s6.53.44,9.36-.6c11-4,21.79-8.56,32.66-12.9,1.27-.5,2.57-.93,4.4-1.59Zm76.41,121.85c-.23.78-.39,1.4-.57,2-3,10.23-11.34,16.84-21.41,17s-18.51-6.41-21.5-16.74c-.64-2.2-1.74-2.42-3.57-2.41-15.73,0-31.45,0-47.17,0-5.29,0-7.56,2.21-7.63,7.5-.11,8-.08,16,0,24a31.55,31.55,0,0,0,12.93,26c6.55,5,14.13,6.36,22.18,6.36q105.17-.08,210.32,0c13.4,0,26.8.11,40.2,0,19.7-.2,32.85-12.86,33.51-32.32.27-8,.13-16,0-24-.07-5.26-2.36-7.46-7.66-7.46q-40.59-.06-81.19.07a5.59,5.59,0,0,0-3.91,2.13c-9.71,14.07-28.15,14-37.86-.14-.54-.79-1.36-2-2.08-2-6.76-.15-13.53-.09-20.65-.09,0,10.34.25,20.12-.07,29.89A22,22,0,0,1,290.6,568.4c-11.47.39-21.72-8.37-22.54-20-.62-8.73-.33-17.51-.44-26.27,0-1.49,0-3,0-4.61Zm-31.75-64v4.9c0,18,0,36.09,0,54.13,0,6.71,4,11.11,9.79,11s9.33-4.41,9.35-11c0-9.79-.08-19.59,0-29.38.15-12.35,8.49-22.12,19.54-23.12,14.39-1.3,25.11,8.5,25.18,23.23.1,20.24,0,40.47.06,60.71a15.6,15.6,0,0,0,.71,5.29,9.32,9.32,0,0,0,10.48,6c4.55-.72,7.91-4.73,8-10,.1-11.21,0-22.42,0-33.64,0-16.88-.19-33.77.23-50.65.28-11.13,10.17-20.05,21.44-20.31,11.56-.26,21.64,8.21,22.56,19.5.56,6.92.38,13.9.44,20.86.08,9-.06,18,.14,27.06a9.35,9.35,0,0,0,17.88,3.58,12.85,12.85,0,0,0,1-5.23q.09-37.89,0-75.78a25,25,0,0,0-.29-2.69H216.43v12.4H203.69V428.28a5.84,5.84,0,0,0-1.17-.36q-25.9,0-51.81,0a4.86,4.86,0,0,0-2.8.9,20.13,20.13,0,0,0-5.55,25c7.9,15.49,28.28,16.53,38.82,2,1.71-2.36,3.29-4.81,5.09-7.45,4.84,6.88,8.36,14.51,17.74,16.49V453.58Zm239.84-62.4c-.47.67-.91,1-1,1.49-2.15,8.82-8.12,9.74-16.32,10-10.38.34-18.4-2-24.63-10.44-1-1.38-3.33-2.07-5.18-2.49-7.38-1.66-12.28,1.07-14.21,8.58-.06.25-.24.46-.32.7-.82,2.52-2.37,3.55-5.17,3.36a53.82,53.82,0,0,0-12,0c-8.72,1.36-14.56-1.32-16.74-10.29a1.11,1.11,0,0,0-.37-.66c-1.12-.62-2.27-1.65-3.38-1.62-.85,0-2.06,1.23-2.44,2.19-1.37,3.46-2.42,7.05-3.66,10.57-2.61,7.44-.55,6.08-8.61,6.18-7.7.1-15.4,0-23.62,0V396c-5,0-9.54.18-14-.11-1.32-.08-3.39-1.22-3.69-2.27-2.57-9.17-8.55-12.2-17.52-10.44-.75.14-1.68-.24-2.29.08-1.19.6-2.77,1.3-3.2,2.36a96.66,96.66,0,0,0-4.32,12.79c-.81,3.32-2.51,4.16-5.67,4-4.24-.25-8.59-.6-12.74.05-8.26,1.29-13.48-1.52-15.58-9.73a2.55,2.55,0,0,0-.7-1.35,6.3,6.3,0,0,0-2.67-1.6c-9-.9-9-.85-13.09,7.27a8.89,8.89,0,0,0-.69,1.38c-.92,3.25-3,4.2-6.32,4-10.07-.64-20.11-.69-28.8,5.75a2.58,2.58,0,0,1-1.45.51c-8.85,0-17.71,0-27,0V392.72L145.93,398c1.42,4.36,2.66,8.62,4.2,12.77,1.21,3.29,3.47,4.6,7.34,4.59q146.75-.19,293.49-.1c9.12,0,10.37-.92,13.14-9.74.3-1,.52-2,.76-3,1.79-7.51,1.48-8.08-5.64-10.4C458.36,391.8,457.51,391.55,456.35,391.18Zm-79.84,57.41a9.59,9.59,0,0,1,2.58,1.58,53.26,53.26,0,0,1,3,4.48c10.4,15.39,28.81,15.46,39.25.14,1.4-2.05,2.77-4.11,4.27-6.34,2.7,3.68,4.88,7,7.45,10a22.12,22.12,0,0,0,38.46-18.58c-1.4-7.8-6.39-12.06-14.17-12.06H376.51Zm86.62,28c-17,4-18.14,3.78-37.51-6.59-15.31,11.41-30.73,12.46-46.41.69-2.33-1.74-2.88.08-2.89,2,0,4.89,0,9.78,0,14.67v17c24.18,0,47.84.34,71.49-.12C461.67,504,469.54,489.31,463.13,476.56ZM203.84,504.5c0-8.4.08-16.12-.1-23.83,0-.95-1.27-2.21-2.26-2.74-4.27-2.3-8.8-4.14-12.94-6.64-1.87-1.13-2.82-1.19-4.65,0a61.75,61.75,0,0,1-11.16,5.9c-7.91,2.95-15.92,2-23.69-.72-6.72,11.86,1,26.78,14.24,27.8,5.76.45,11.58.23,17.38.25C188.23,504.52,195.81,504.5,203.84,504.5Zm127.67-.2c0-10.83,0-21.46,0-32.1,0-2.14-1-2.61-3-1.53-4.82,2.56-9.77,4.88-14.62,7.4a2.8,2.8,0,0,0-1.47,1.87c-.1,8.05-.07,16.11-.07,24.36Zm-64,.07c0-7.81.17-15.24-.06-22.66a9.48,9.48,0,0,0-9.63-9.07,9.61,9.61,0,0,0-9.2,9.54c-.15,6.29-.07,12.59-.05,18.89,0,1.09.17,2.19.26,3.3Zm58.09-49.92c-7.68-2.42-13.7,2.49-12.94,10.5A21.75,21.75,0,0,0,325.63,454.45Z" transform="translate(-108 -198)"/><path class="cls-1" d="M108,386.71c2.45,7.56,6.83,13.36,15,15.09,3.47.74,7.14.52,10.38.72,1.95,5.1,3.92,10,5.6,14.89.3.88-.32,2.29-.91,3.2-2.72,4.17-6.28,7.95-8.25,12.44-5.45,12.42-2.14,23.61,6.12,33.72.65.79,1.35,1.55,2,2.31-7.09,13.7-5.41,26.37,3.6,37.4-2.61,4.65-6.78,8.8-7,13.17-.78,13.05-1.64,26.45.49,39.22,3.54,21.29,22.35,35.09,44.64,35.1q83.89.06,167.79,0,42.15,0,84.29,0c27.46,0,46.69-19.23,46.75-46.66,0-5.93-.18-11.87,0-17.79.33-8.62-1-16.49-8.94-21.86,9.71-11.94,11.72-24.59,4.5-38.54,6.81-7.13,10.85-15.57,10.7-25.79s-4.75-18.21-11.63-24.21c2.18-7.87,4.21-15.23,6.4-23.14,2.16,0,5.1.05,8,0,8.9-.18,15.77-6.44,16.37-14.83.6-8.61-5.44-15.39-14.49-17.07-2.22-.41-4.12-2.68-6.11-4.18-3.7-2.8-5-6.39-5.33-11.19-2.4-40.67-18.2-75.59-47-104.25-25.31-25.2-56-40.29-91.53-45-3.43-.45-6.86-1-10.29-1.43H504.76V594.76H108Z" transform="translate(-108 -198)"/><path class="cls-1" d="M282.79,198c-8.11,1.29-16.34,2.06-24.31,3.95-42.8,10.11-76.32,33.62-100.09,70.69-15.4,24-23.41,50.46-24.79,79a9.83,9.83,0,0,1-2.42,5.64c-3.39,3.79-7,7.16-12.21,8.91-6.13,2.05-9,7.67-11,13.6V198Z" transform="translate(-108 -198)"/><path class="cls-1" d="M171.85,395.69V374c-1.83.66-3.13,1.09-4.4,1.59-10.87,4.34-21.68,8.87-32.66,12.9-2.83,1-6.29,1-9.36.6S121,386.2,121,383.17c0-2.87,1.41-5.55,4.19-5.7,5.5-.31,8.49-4,11.44-7.56,3.78-4.53,8.08-5.93,14-5.92q138.81.31,277.61.14h5.2V351.27H145.85c1.73-10.27,2.72-20.12,5.11-29.63a142.79,142.79,0,0,1,38.2-67.36c22.75-22.7,49.93-37.15,81.87-41.51a248.54,248.54,0,0,1,75.45.8C366,216.89,384,224.62,400.37,235.7a146.17,146.17,0,0,1,50.94,58.92,142.68,142.68,0,0,1,14.05,56.51H446.87v13c6.48,0,12.89-.18,19.28.11a11,11,0,0,1,5.63,2.36,45.4,45.4,0,0,1,6.06,5.95c2.5,2.74,5,4.84,9.22,4.41,1.2-.13,3.49,1.78,3.78,3.09.54,2.47-1.72,2.88-3.8,3.14-11.28,1.44-21.56-2.35-31.92-5.9-6.28-2.16-4.79-3-8.12,3.38a1.54,1.54,0,0,0-.17.34c-1.89,7.55-6.81,10.21-14.2,8.63a9.71,9.71,0,0,1-4.34-1.82c-3.93-3.52-7-8.8-11.57-10.55-4.83-1.86-11,.07-16.44-.64-6.88-.91-10.86,1.49-12.83,8-.52,1.76-1.67,4.39-2.95,4.66a33,33,0,0,1-10,.11c-.82-.08-1.83-1.78-2.15-2.9-2.34-8.18-7.4-10.77-15.93-10-10.23.93-10.29.22-13.62,10.16-1,3-2.06,6.05-3.11,9.13h-8.08V383.18c-6,0-11.77-.17-17.49.07-3.14.13-5.23-.66-6.09-3.82-2-7.45-6.61-10.09-14.4-9.14-6.73.81-13.64.36-20.46.08-3.08-.12-4.3,1-5.06,3.79-1.17,4.21-2.75,8.3-4,12.48-.64,2.1-1.61,2.87-4,3.16-5.63.68-9.4-.92-10.91-6.67-1.4-5.31-4.73-7.06-10.23-6.49s-11.34,0-17,.23c-1.43.07-3.72,1.25-4,2.36-2.56,9.19-8.47,11.83-17.52,10.66-3.23-.42-7.17.95-10.1,2.68C184.69,395.92,178.83,396.51,171.85,395.69ZM389.16,268h12.48V255.67H389.16Zm-95.7-25.47h12.28V230H293.46Zm44.59,19.13h12.46V249.34H338.05Zm-19.46,19.61H306.3v12.36h12.29Zm-82.7-44.66v12.23h12.47V236.61ZM204,287.25h12.2V274.81H204Zm63.29-12.84V262.17H255.11v12.24Z" transform="translate(-108 -198)"/><path class="cls-1" d="M248.26,517.54h19.36c0,1.63,0,3.12,0,4.61.11,8.76-.18,17.54.44,26.27.82,11.61,11.07,20.37,22.54,20a22,22,0,0,0,21.55-21.11c.32-9.77.07-19.55.07-29.89,7.12,0,13.89-.06,20.65.09.72,0,1.54,1.18,2.08,2,9.71,14.18,28.15,14.21,37.86.14a5.59,5.59,0,0,1,3.91-2.13q40.59-.18,81.19-.07c5.3,0,7.59,2.2,7.66,7.46.11,8,.25,16,0,24-.66,19.46-13.81,32.12-33.51,32.32-13.4.13-26.8,0-40.2,0q-105.16,0-210.32,0c-8.05,0-15.63-1.34-22.18-6.36a31.55,31.55,0,0,1-12.93-26c-.08-8-.11-16,0-24,.07-5.29,2.34-7.49,7.63-7.5,15.72,0,31.44,0,47.17,0,1.83,0,2.93.21,3.57,2.41,3,10.33,11.55,16.85,21.5,16.74s18.42-6.72,21.41-17C247.87,518.94,248,518.32,248.26,517.54Z" transform="translate(-108 -198)"/><path class="cls-1" d="M216.51,453.58H204v11.26c-9.38-2-12.9-9.61-17.74-16.49-1.8,2.64-3.38,5.09-5.09,7.45-10.54,14.57-30.92,13.53-38.82-2a20.13,20.13,0,0,1,5.55-25,4.86,4.86,0,0,1,2.8-.9q25.9-.06,51.81,0a5.84,5.84,0,0,1,1.17.36v12.23h12.74v-12.4H363.09a25,25,0,0,1,.29,2.69q0,37.89,0,75.78a12.85,12.85,0,0,1-1,5.23,9.35,9.35,0,0,1-17.88-3.58c-.2-9-.06-18-.14-27.06-.06-7,.12-13.94-.44-20.86-.92-11.29-11-19.76-22.56-19.5-11.27.26-21.16,9.18-21.44,20.31-.42,16.88-.2,33.77-.23,50.65,0,11.22.06,22.43,0,33.64-.05,5.26-3.41,9.27-8,10a9.32,9.32,0,0,1-10.48-6,15.6,15.6,0,0,1-.71-5.29c-.05-20.24,0-40.47-.06-60.71-.07-14.73-10.79-24.53-25.18-23.23-11.05,1-19.39,10.77-19.54,23.12-.12,9.79,0,19.59,0,29.38,0,6.57-3.74,10.9-9.35,11s-9.77-4.32-9.79-11c-.06-18,0-36.09,0-54.13Z" transform="translate(-108 -198)"/><path class="cls-1" d="M456.35,391.18c1.16.37,2,.62,2.87.9,7.12,2.32,7.43,2.89,5.64,10.4-.24,1-.46,2-.76,3-2.77,8.82-4,9.74-13.14,9.74q-146.74,0-293.49.1c-3.87,0-6.13-1.3-7.34-4.59-1.54-4.15-2.78-8.41-4.2-12.77L159,392.72v15.94c9.26,0,18.12,0,27,0a2.58,2.58,0,0,0,1.45-.51c8.69-6.44,18.73-6.39,28.8-5.75,3.34.21,5.4-.74,6.32-4a8.89,8.89,0,0,1,.69-1.38c4.06-8.12,4.06-8.17,13.09-7.27a6.3,6.3,0,0,1,2.67,1.6,2.55,2.55,0,0,1,.7,1.35c2.1,8.21,7.32,11,15.58,9.73,4.15-.65,8.5-.3,12.74-.05,3.16.19,4.86-.65,5.67-4A96.66,96.66,0,0,1,278,385.61c.43-1.06,2-1.76,3.2-2.36.61-.32,1.54.06,2.29-.08,9-1.76,14.95,1.27,17.52,10.44.3,1.05,2.37,2.19,3.69,2.27,4.48.29,9,.11,14,.11V408.8c8.22,0,15.92.08,23.62,0,8.06-.1,6,1.26,8.61-6.18,1.24-3.52,2.29-7.11,3.66-10.57.38-1,1.59-2.18,2.44-2.19,1.11,0,2.26,1,3.38,1.62a1.11,1.11,0,0,1,.37.66c2.18,9,8,11.65,16.74,10.29a53.82,53.82,0,0,1,12,0c2.8.19,4.35-.84,5.17-3.36.08-.24.26-.45.32-.7,1.93-7.51,6.83-10.24,14.21-8.58,1.85.42,4.16,1.11,5.18,2.49,6.23,8.42,14.25,10.78,24.63,10.44,8.2-.26,14.17-1.18,16.32-10C455.44,392.22,455.88,391.85,456.35,391.18Z" transform="translate(-108 -198)"/><path class="cls-1" d="M376.51,448.59V427.85h80.87c7.78,0,12.77,4.26,14.17,12.06a22.12,22.12,0,0,1-38.46,18.58c-2.57-3-4.75-6.36-7.45-10-1.5,2.23-2.87,4.29-4.27,6.34-10.44,15.32-28.85,15.25-39.25-.14a53.26,53.26,0,0,0-3-4.48A9.59,9.59,0,0,0,376.51,448.59Z" transform="translate(-108 -198)"/><path class="cls-1" d="M463.13,476.56c6.41,12.75-1.46,27.42-15.34,27.69-23.65.46-47.31.12-71.49.12v-17c0-4.89,0-9.78,0-14.67,0-1.95.56-3.77,2.89-2,15.68,11.77,31.1,10.72,46.41-.69C445,480.34,446.14,480.54,463.13,476.56Z" transform="translate(-108 -198)"/><path class="cls-1" d="M203.84,504.5c-8,0-15.61,0-23.18,0-5.8,0-11.62.2-17.38-.25-13.29-1-21-15.94-14.24-27.8,7.77,2.74,15.78,3.67,23.69.72a61.75,61.75,0,0,0,11.16-5.9c1.83-1.16,2.78-1.1,4.65,0,4.14,2.5,8.67,4.34,12.94,6.64,1,.53,2.24,1.79,2.26,2.74C203.92,488.38,203.84,496.1,203.84,504.5Z" transform="translate(-108 -198)"/><path class="cls-1" d="M331.51,504.3H312.33c0-8.25,0-16.31.07-24.36a2.8,2.8,0,0,1,1.47-1.87c4.85-2.52,9.8-4.84,14.62-7.4,2-1.08,3-.61,3,1.53C331.54,482.84,331.51,493.47,331.51,504.3Z" transform="translate(-108 -198)"/><path class="cls-1" d="M267.54,504.37H248.86c-.09-1.11-.26-2.21-.26-3.3,0-6.3-.1-12.6.05-18.89a9.61,9.61,0,0,1,9.2-9.54,9.48,9.48,0,0,1,9.63,9.07C267.71,489.13,267.54,496.56,267.54,504.37Z" transform="translate(-108 -198)"/><path class="cls-1" d="M325.63,454.45A21.75,21.75,0,0,1,312.69,465C311.93,456.94,318,452,325.63,454.45Z" transform="translate(-108 -198)"/><path d="M389.16,268V255.67h12.48V268Z" transform="translate(-108 -198)"/><path d="M293.46,242.53V230h12.28v12.49Z" transform="translate(-108 -198)"/><path d="M338.05,261.66V249.34h12.46v12.32Z" transform="translate(-108 -198)"/><path d="M318.59,281.27v12.36H306.3V281.27Z" transform="translate(-108 -198)"/><path d="M235.89,236.61h12.47v12.23H235.89Z" transform="translate(-108 -198)"/><path d="M204,287.25V274.81h12.2v12.44Z" transform="translate(-108 -198)"/><path d="M267.33,274.41H255.11V262.17h12.22Z" transform="translate(-108 -198)"/></svg>