<svg id="Capa_1" data-name="Capa 1" xmlns="http://www.w3.org/2000/svg" viewBox="0 0 409.6 409.6"><defs><style>.cls-1{fill:#fff;}</style></defs><title>instagram</title><path d="M398.89,600.6H212a10.16,10.16,0,0,0-1.9-.53,114.34,114.34,0,0,1-54.87-18.72c-24.71-16.29-41.52-38.62-49.5-67.2-2.24-8-3.2-16.35-4.74-24.54V302.77c.22-1.29.53-2.56.66-3.85,1.55-16.1,5.93-31.44,14.07-45.36,23.35-40,58.39-61.14,104.76-61.64,56.69-.6,113.39-.26,170.09-.09,29.43.08,55.7,9.49,77.93,28.9,28,24.45,41.4,55.64,41.39,92.7q0,82.44,0,164.87c0,20.29-3.72,39.69-13.27,57.7-16,30.17-40.3,50.4-73.19,59.85C415.48,598.15,407.09,599.05,398.89,600.6Zm-93-376.88c-27.94,0-55.89-.13-83.83.09a94.48,94.48,0,0,0-20.58,2C159.87,235.55,133,269.67,133,312.36q-.08,83.82.07,167.63a90.36,90.36,0,0,0,2,20.18c9.71,41.57,43.83,68.45,86.54,68.48q83.83.06,167.66-.07a93.75,93.75,0,0,0,19.8-1.91c40.91-9,68.71-43.51,68.84-85.46.18-56.67.06-113.35,0-170,0-12.66-2.24-24.94-7.83-36.33-16.43-33.53-43.58-50.58-80.82-51.07C361.49,223.42,333.67,223.72,305.86,223.72Z" transform="translate(-101 -191)"/><path class="cls-1" d="M398.89,600.6c8.2-1.55,16.59-2.45,24.58-4.75,32.89-9.45,57.21-29.68,73.19-59.85,9.55-18,13.3-37.41,13.27-57.7q-.12-82.43,0-164.87c0-37.06-13.39-68.25-41.39-92.7-22.23-19.41-48.5-28.82-77.93-28.9-56.7-.17-113.4-.51-170.09.09-46.37.5-81.41,21.66-104.76,61.64-8.14,13.92-12.52,29.26-14.07,45.36-.13,1.29-.44,2.56-.66,3.85V191H510.6V600.6Z" transform="translate(-101 -191)"/><path class="cls-1" d="M101,489.61c1.54,8.19,2.5,16.54,4.74,24.54,8,28.58,24.79,50.91,49.5,67.2a114.34,114.34,0,0,0,54.87,18.72,10.16,10.16,0,0,1,1.9.53H101Z" transform="translate(-101 -191)"/><path class="cls-1" d="M305.86,223.72c27.81,0,55.63-.3,83.43.07,37.24.49,64.39,17.54,80.82,51.07,5.59,11.39,7.83,23.67,7.83,36.33,0,56.67.15,113.35,0,170-.13,41.95-27.93,76.42-68.84,85.46a93.75,93.75,0,0,1-19.8,1.91q-83.83.21-167.66.07c-42.71,0-76.83-26.91-86.54-68.48A90.36,90.36,0,0,1,133,480q-.22-83.8-.07-167.63c0-42.69,26.91-76.81,68.49-86.52a94.48,94.48,0,0,1,20.58-2C250,223.59,277.92,223.72,305.86,223.72Zm109.79,173c.58-60.29-48.94-110.21-109.79-110.69-60.22-.47-109.8,48.6-110.6,109.47-.79,60.2,48.61,110.18,109.58,110.88C365.1,507.05,415.06,457.6,415.65,396.7ZM433.2,284.58A15.94,15.94,0,1,0,417,300.34,16,16,0,0,0,433.2,284.58Z" transform="translate(-101 -191)"/><path d="M415.65,396.7c-.59,60.9-50.55,110.35-110.81,109.66-61-.7-110.37-50.68-109.58-110.88.8-60.87,50.38-109.94,110.6-109.47C366.71,286.49,416.23,336.41,415.65,396.7Zm-31.95-.32c.16-43-35-78.28-78.06-78.43s-78.29,35-78.44,78.05,35,78.27,78.06,78.43S383.55,439.44,383.7,396.38Z" transform="translate(-101 -191)"/><path d="M433.2,284.58a15.94,15.94,0,1,1-15.86-16.12A16,16,0,0,1,433.2,284.58Z" transform="translate(-101 -191)"/><path class="cls-1" d="M383.7,396.38c-.15,43.06-35.47,78.21-78.44,78.05S227,439,227.2,396s35.46-78.2,78.44-78.05S383.86,353.41,383.7,396.38Z" transform="translate(-101 -191)"/></svg>