<svg id="Capa_1" data-name="Capa 1" xmlns="http://www.w3.org/2000/svg" viewBox="0 0 324.25 324.25"><defs><style>.cls-1{fill:#fff;}</style></defs><title>llamada-telefonica</title><path class="cls-1" d="M144,256.75V234H468.25V558.25H445.57a6.37,6.37,0,0,1,1.11-.49c12.91-2.83,20.93-12.6,21-25.91.09-19.27.17-38.54-.1-57.81a29.48,29.48,0,0,0-2.65-11.86c-4.7-9.91-13.2-14-24-14.6-10.07-.54-20.22-1.07-30.16-2.7-9.71-1.59-19.2-4.6-28.8-6.92-7.57-1.83-14.68-.68-21,4-9,6.74-17.92,13.65-26.89,20.47-4,3.06-8.05,6.07-12.07,9.1-2.37-1.35-4.55-2.62-6.76-3.84-36.48-20-64.13-48.73-83.43-85.53a3.78,3.78,0,0,1,0-3.25c8.72-11.75,17.32-23.61,26.46-35,6.41-8,8.61-16.54,5.55-26.21-6-18.82-8.65-38.09-9.22-57.77-.43-14.8-11.25-25.17-26.07-25.27-19.49-.13-39-.06-58.47,0a26,26,0,0,0-17.37,6.43C147.85,245.25,145.59,250.8,144,256.75Z" transform="translate(-144 -234)"/><path d="M144,256.75c1.59-5.95,3.85-11.5,8.71-15.67a26,26,0,0,1,17.37-6.43c19.49-.05,39-.12,58.47,0,14.82.1,25.64,10.47,26.07,25.27.57,19.68,3.25,38.95,9.22,57.77,3.06,9.67.86,18.21-5.55,26.21-9.14,11.41-17.74,23.27-26.46,35a3.78,3.78,0,0,0,0,3.25c19.3,36.8,46.95,65.48,83.43,85.53,2.21,1.22,4.39,2.49,6.76,3.84,4-3,8.06-6,12.07-9.1,9-6.82,17.87-13.73,26.89-20.47,6.29-4.7,13.4-5.85,21-4,9.6,2.32,19.09,5.33,28.8,6.92,9.94,1.63,20.09,2.16,30.16,2.7,10.76.58,19.26,4.69,24,14.6A29.48,29.48,0,0,1,467.57,474c.27,19.27.19,38.54.1,57.81-.06,13.31-8.08,23.08-21,25.91a6.37,6.37,0,0,0-1.11.49H429.76c-1-.16-2.06-.34-3.09-.46-11.82-1.33-23.71-2.13-35.43-4.07a287.39,287.39,0,0,1-104.48-39.3,297.2,297.2,0,0,1-97.75-97,293.42,293.42,0,0,1-43.1-124.12c-.78-6.88-1.28-13.8-1.91-20.7Z" transform="translate(-144 -234)"/><path class="cls-1" d="M144,272.55c.63,6.9,1.13,13.82,1.91,20.7A293.42,293.42,0,0,0,189,417.37a297.2,297.2,0,0,0,97.75,97,287.39,287.39,0,0,0,104.48,39.3c11.72,1.94,23.61,2.74,35.43,4.07,1,.12,2.06.3,3.09.46H144Z" transform="translate(-144 -234)"/></svg>