<svg id="Capa_1" data-name="Capa 1" xmlns="http://www.w3.org/2000/svg" viewBox="0 0 384 384"><defs><style>.cls-1{fill:#fff;}</style></defs><title>pizza</title><path d="M114,355.5V345a23.26,23.26,0,0,0,.77-2.41c5.28-26.39,33.88-40.76,58-29a9.37,9.37,0,0,0,8.05.42q136.51-48.78,273.07-97.42c11.49-4.1,22.9-8.41,34.35-12.62H498v9.75a28.93,28.93,0,0,0-1.38,3Q443.39,372.35,390.25,528a9.4,9.4,0,0,0,.08,5.65,40.94,40.94,0,0,1-25.86,52.2c-2.46.82-5,1.46-7.47,2.18H346.5c-4-1.25-8.2-2.16-12.07-3.79Q234.5,542.14,168.74,455.87C145.49,425.23,125.75,392.5,114,355.5ZM378.78,515c12.51-36.61,25.16-73.55,37.67-110.54.3-.91-.61-2.75-1.51-3.47-5.94-4.77-12.05-9.32-18.07-14-3.66-2.86-4.67-6.37-3-9.82,2.26-4.61,7.63-5.44,12.39-1.84,5.23,3.95,10.42,8,16.05,12.28,5.05-14.79,9.91-29,14.78-43.23-25.68-6.25-32.3-29.55-26.63-45.27a33.34,33.34,0,0,1,17.27-19.34c10.32-5,20.71-4.5,31.28.54,6.41-18.75,12.72-37.24,19.3-56.51l-99.41,35.46c1.09,2.76,2.06,5.05,2.92,7.37,1.7,4.6.13,8.58-4,10.25-3.92,1.59-7.76-.13-9.75-4.44-1.18-2.57-2.25-5.19-3.5-8.09l-92.85,33.1c12.42,23.2-.38,44.08-16.76,50.28a33,33,0,0,1-26.26-.75c-11.36-5.23-17.82-14.42-20.07-27-6.73,2.41-13.14,4.69-19.52,7,2,4.33,4,8.34,5.76,12.42,30.71,69.81,79.66,122.63,147.3,158C354.1,503.52,366.38,509,378.78,515Zm-222-190.52c-20.75,0-33,18.94-25.39,36.85,33.69,79.51,87.34,141.75,161.92,185.46,15.45,9.05,31.88,16.54,48.2,24,13.16,6,28.13-.4,33.83-13.39s0-27.84-13.05-34.06c-2-1-4.1-1.84-6.15-2.74Q264.46,480.4,209.06,397a334.18,334.18,0,0,1-29.69-55.77C174.82,330.49,166.61,325,156.79,324.5Zm105.77-8.7c-1.36-3.54-2.63-7.11-4.1-10.6-.77-1.83-2.06-2.34-4.19-1.55q-14,5.19-28.15,10c-2.28.78-2.73,2-2.5,4.16,1.08,9.95,9.9,17.69,19.74,17.25C253.62,334.59,261.71,326.26,262.56,315.8ZM453.9,295.26a17.9,17.9,0,0,0-15.13-3.54,19,19,0,0,0-15.12,19.19c.13,8.85,6.83,16.81,15.37,18.26,1.8.3,3.28.42,4.05-1.93C446.58,316.6,450.25,306,453.9,295.26Z" transform="translate(-114 -204)"/><path class="cls-1" d="M488.25,204c-11.45,4.21-22.86,8.52-34.35,12.62Q317.37,265.34,180.83,314a9.37,9.37,0,0,1-8.05-.42c-24.13-11.79-52.73,2.58-58,29A23.26,23.26,0,0,1,114,345V204Z" transform="translate(-114 -204)"/><path class="cls-1" d="M357,588c2.49-.72,5-1.36,7.47-2.18a40.94,40.94,0,0,0,25.86-52.2,9.4,9.4,0,0,1-.08-5.65q53.08-155.64,106.37-311.22a28.93,28.93,0,0,1,1.38-3V588Z" transform="translate(-114 -204)"/><path class="cls-1" d="M114,355.5c11.75,37,31.49,69.73,54.74,100.37q65.54,86.36,165.69,128.34c3.87,1.63,8,2.54,12.07,3.79H114Z" transform="translate(-114 -204)"/><path class="cls-1" d="M378.78,515c-12.4-6-24.68-11.5-36.58-17.72C274.56,462,225.61,409.16,194.9,339.35c-1.79-4.08-3.74-8.09-5.76-12.42,6.38-2.27,12.79-4.55,19.52-7,2.25,12.61,8.71,21.8,20.07,27a33,33,0,0,0,26.26.75c16.38-6.2,29.18-27.08,16.76-50.28l92.85-33.1c1.25,2.9,2.32,5.52,3.5,8.09,2,4.31,5.83,6,9.75,4.44,4.12-1.67,5.69-5.65,4-10.25-.86-2.32-1.83-4.61-2.92-7.37l99.41-35.46c-6.58,19.27-12.89,37.76-19.3,56.51-10.57-5-21-5.55-31.28-.54a33.34,33.34,0,0,0-17.27,19.34c-5.67,15.72.95,39,26.63,45.27-4.87,14.24-9.73,28.44-14.78,43.23-5.63-4.31-10.82-8.33-16.05-12.28-4.76-3.6-10.13-2.77-12.39,1.84-1.69,3.45-.68,7,3,9.82,6,4.68,12.13,9.23,18.07,14,.9.72,1.81,2.56,1.51,3.47C403.94,441.47,391.29,478.41,378.78,515ZM308.23,427a34.1,34.1,0,1,0,34.21-34A34.1,34.1,0,0,0,308.23,427Zm70-93.18a34,34,0,1,0-68.08.07c.07,18.87,15.44,34.24,34.08,34.08A34.09,34.09,0,0,0,378.28,333.78ZM274.8,359.22c-5.3-.07-8.54,2.62-9,6.67a7.3,7.3,0,0,0,6.23,8.05c7.86,1.25,15.77,2.28,23.68,3.15a7.41,7.41,0,0,0,8-6.34,7.25,7.25,0,0,0-5.79-8.35C289.92,361.12,281.88,360.18,274.8,359.22Zm10.85,58.5c-.72-5.22-1.32-10.92-2.36-16.55-.7-3.76-4.46-6-8.22-5.45a7.25,7.25,0,0,0-6.39,7.89c.51,5.45,1.27,10.88,2.16,16.28A7.36,7.36,0,0,0,279,426C282.84,425.51,285.67,422.19,285.65,417.72Z" transform="translate(-114 -204)"/><path class="cls-1" d="M156.79,324.5c9.82.51,18,6,22.58,16.75A334.18,334.18,0,0,0,209.06,397q55.51,83.22,147.09,123.58c2.05.9,4.12,1.77,6.15,2.74,13.09,6.22,18.76,21,13.05,34.06s-20.67,19.39-33.83,13.39c-16.32-7.44-32.75-14.93-48.2-24C218.74,503.1,165.09,440.86,131.4,361.35,123.81,343.44,136,324.5,156.79,324.5Zm19.74,74c6.37-.8,9.65-6.53,7-12q-9.65-19.81-19.38-39.58c-2.06-4.17-6-5.79-9.91-4.1a7.18,7.18,0,0,0-3.78,10c6.57,13.83,13.3,27.59,20.3,41.2C171.74,395.93,174.55,397,176.53,398.46Zm12.14,3.35a7.3,7.3,0,0,0-7.42,7.25,7.44,7.44,0,1,0,14.88.38A7.42,7.42,0,0,0,188.67,401.81Z" transform="translate(-114 -204)"/><path class="cls-1" d="M262.56,315.8c-.85,10.46-8.94,18.79-19.2,19.25-9.84.44-18.66-7.3-19.74-17.25-.23-2.13.22-3.38,2.5-4.16q14.15-4.8,28.15-10c2.13-.79,3.42-.28,4.19,1.55C259.93,308.69,261.2,312.26,262.56,315.8Z" transform="translate(-114 -204)"/><path class="cls-1" d="M453.9,295.26c-3.65,10.74-7.32,21.34-10.83,32-.77,2.35-2.25,2.23-4.05,1.93-8.54-1.45-15.24-9.41-15.37-18.26a19,19,0,0,1,15.12-19.19A17.9,17.9,0,0,1,453.9,295.26Z" transform="translate(-114 -204)"/><path d="M308.23,427a34.1,34.1,0,1,1,33.9,34.26A34.1,34.1,0,0,1,308.23,427Zm15,.2A19.11,19.11,0,1,0,342.14,408,19.09,19.09,0,0,0,323.22,427.16Z" transform="translate(-114 -204)"/><path d="M378.28,333.78a34.09,34.09,0,0,1-34,34.15c-18.64.16-34-15.21-34.08-34.08a34,34,0,1,1,68.08-.07Zm-15,.59a19.05,19.05,0,1,0-19.22,18.55A18.89,18.89,0,0,0,363.28,334.37Z" transform="translate(-114 -204)"/><path d="M274.8,359.22c7.08,1,15.12,1.9,23.1,3.18a7.25,7.25,0,0,1,5.79,8.35,7.41,7.41,0,0,1-8,6.34c-7.91-.87-15.82-1.9-23.68-3.15a7.3,7.3,0,0,1-6.23-8.05C266.26,361.84,269.5,359.15,274.8,359.22Z" transform="translate(-114 -204)"/><path d="M285.65,417.72c0,4.47-2.81,7.79-6.64,8.24a7.36,7.36,0,0,1-8.17-6.07c-.89-5.4-1.65-10.83-2.16-16.28a7.25,7.25,0,0,1,6.39-7.89c3.76-.53,7.52,1.69,8.22,5.45C284.33,406.8,284.93,412.5,285.65,417.72Z" transform="translate(-114 -204)"/><path d="M176.53,398.46c-2-1.48-4.79-2.53-5.8-4.51-7-13.61-13.73-27.37-20.3-41.2a7.18,7.18,0,0,1,3.78-10c3.89-1.69,7.85-.07,9.91,4.1q9.7,19.78,19.38,39.58C186.18,391.93,182.9,397.66,176.53,398.46Z" transform="translate(-114 -204)"/><path d="M188.67,401.81a7.42,7.42,0,0,1,7.46,7.63,7.44,7.44,0,1,1-14.88-.38A7.3,7.3,0,0,1,188.67,401.81Z" transform="translate(-114 -204)"/><path class="cls-1" d="M323.22,427.16a19.11,19.11,0,1,1,38.21.08,19.11,19.11,0,0,1-38.21-.08Z" transform="translate(-114 -204)"/><path class="cls-1" d="M363.28,334.37A19.05,19.05,0,1,1,344.8,314.8,19.07,19.07,0,0,1,363.28,334.37Z" transform="translate(-114 -204)"/></svg>