<svg id="Capa_1" data-name="Capa 1" xmlns="http://www.w3.org/2000/svg" viewBox="0 0 384 384"><defs><style>.cls-1{fill:#fff;}</style></defs><title>telefono</title><path class="cls-1" d="M225,204H498V477c-2.23-6-6.76-8.6-12.89-9.86-25.06-5.15-50.06-10.58-75.06-16-15.73-3.42-15.71-3.51-27.18,8l-25.49,25.51q-92.6-47.79-140-140c10.4-10.37,20.38-20.53,30.61-30.44,4.52-4.38,5.75-9.17,4.41-15.26q-9-41-17.54-82C233.59,210.77,231,206.22,225,204Z" transform="translate(-114 -204)"/><path d="M225,204c6,2.22,8.59,6.77,9.86,12.9q8.49,41.06,17.54,82c1.34,6.09.11,10.88-4.41,15.26-10.23,9.91-20.21,20.07-30.61,30.44q47.58,92.39,140,140l25.49-25.51c11.47-11.48,11.45-11.39,27.18-8,25,5.43,50,10.86,75.06,16C491.24,468.4,495.77,471,498,477v11.25c-.29,1.83-.61,3.66-.85,5.49a108.35,108.35,0,0,1-82.83,91.32c-5.06,1.18-10.21,2-15.32,2.94H381c-.7-.22-1.38-.48-2.09-.65-8.84-2.09-18-3.26-26.47-6.38q-99-36.56-166.39-117.89A376.62,376.62,0,0,1,119.7,345.72c-2.83-8.17-3.85-17-5.7-25.47V303a18.9,18.9,0,0,0,.71-2.83c4.18-42.19,36-80.29,76.79-91.64,7.27-2,14.83-3.05,22.25-4.53Zm-12.26,24.7c-1.47.12-2.7.13-3.9.34-53.24,9-84.3,62.8-64.92,113.34q59.94,156.3,216.53,216.06c45.78,17.51,96.25-7.91,110.11-54.87,1.35-4.59,2.08-9.37,3.12-14.13-1.22-.3-1.69-.44-2.16-.54-22.08-4.74-44.18-9.41-66.22-14.31a5.45,5.45,0,0,0-5.84,1.81c-9.83,10-19.76,19.83-29.67,29.71-5.54,5.53-9.94,6.32-16.87,2.93Q245.53,456.63,193.05,349.27c-3.52-7.22-2.77-11.43,2.95-17.17,10-10,19.94-20,30-29.93a4.57,4.57,0,0,0,1.52-4.89c-2.25-9.72-4.21-19.51-6.3-29.27C218.41,255,215.59,242,212.74,228.7Z" transform="translate(-114 -204)"/><path class="cls-1" d="M114,320.25c1.85,8.5,2.87,17.3,5.7,25.47a376.62,376.62,0,0,0,66.35,117.36Q253.3,544.46,352.44,581c8.46,3.12,17.63,4.29,26.47,6.38.71.17,1.39.43,2.09.65H114Z" transform="translate(-114 -204)"/><path class="cls-1" d="M399,588c5.11-1,10.26-1.76,15.32-2.94a108.35,108.35,0,0,0,82.83-91.32c.24-1.83.56-3.66.85-5.49V588Z" transform="translate(-114 -204)"/><path class="cls-1" d="M213.75,204c-7.42,1.48-15,2.51-22.25,4.53-40.83,11.35-72.61,49.45-76.79,91.64A18.9,18.9,0,0,1,114,303V204Z" transform="translate(-114 -204)"/><path class="cls-1" d="M212.74,228.7C215.59,242,218.41,255,221.2,268c2.09,9.76,4.05,19.55,6.3,29.27a4.57,4.57,0,0,1-1.52,4.89c-10,9.93-20,19.93-30,29.93-5.72,5.74-6.47,9.95-2.95,17.17Q245.51,456.66,352.92,509c6.93,3.39,11.33,2.6,16.87-2.93,9.91-9.88,19.84-19.75,29.67-29.71a5.45,5.45,0,0,1,5.84-1.81c22,4.9,44.14,9.57,66.22,14.31.47.1.94.24,2.16.54-1,4.76-1.77,9.54-3.12,14.13-13.86,47-64.33,72.38-110.11,54.87Q204.19,498.67,143.92,342.38C124.54,291.84,155.6,238.08,208.84,229,210,228.83,211.27,228.82,212.74,228.7Z" transform="translate(-114 -204)"/></svg>