<svg id="Capa_1" data-name="Capa 1" xmlns="http://www.w3.org/2000/svg" viewBox="0 0 512 512"><defs><style>.cls-1{fill:#fff;}</style></defs><title>whatsapp</title><path d="M299,140h32a27.12,27.12,0,0,0,3.84.83c56.65,4.59,106.94,25,148.87,63.3,70.46,64.34,99.94,144.41,81.68,238.42C534.3,602.56,359.15,694.77,205,622.64c-3.25-1.53-6.16-2.42-9.91-1.55-32.08,7.46-64.22,14.65-96.31,22C86.45,645.93,74.24,649,62,652H60c.2-1.31.32-2.64.6-3.93Q74.91,582.74,89.14,517.4a12.07,12.07,0,0,0-1-7.43c-12.1-23.73-21-48.53-25.37-74.85C61.3,426.45,60.24,417.71,59,409V378c1.63-11.17,2.85-22.41,5-33.49C83.18,243.52,168.55,160.42,269.89,144,279.55,142.4,289.29,141.31,299,140ZM112.36,598.88c1.65-.31,2.58-.46,3.5-.67,27.58-6.26,55.17-12.45,82.72-18.86a16.65,16.65,0,0,1,12.68,1.57c51,27.41,104.81,34.09,160.55,18.81C512.9,561,574.66,400.09,495.68,278.13c-48.08-74.24-137.41-112-224.25-93.72C207.14,198,158.22,233.78,125.8,291c-22.59,39.87-30.81,83-25,128.59,3.78,29.83,14.09,57.37,29.13,83.29,1.3,2.23,2.2,5.42,1.7,7.84-3.83,18.57-8,37.06-12.13,55.58C117.11,577,114.81,587.65,112.36,598.88Z" transform="translate(-59 -140)"/><path class="cls-1" d="M62,652c12.24-3,24.45-6.07,36.73-8.89,32.09-7.37,64.23-14.56,96.31-22,3.75-.87,6.66,0,9.91,1.55,154.2,72.13,329.35-20.08,360.44-180.09,18.26-94-11.22-174.08-81.68-238.42-41.93-38.29-92.22-58.71-148.87-63.3A27.12,27.12,0,0,1,331,140H571V652Z" transform="translate(-59 -140)"/><path class="cls-1" d="M299,140c-9.71,1.31-19.45,2.4-29.11,4C168.55,160.42,83.18,243.52,64,344.51c-2.11,11.08-3.33,22.32-5,33.49V140Z" transform="translate(-59 -140)"/><path class="cls-1" d="M59,409c1.24,8.71,2.3,17.45,3.75,26.12C67.14,461.44,76,486.24,88.12,510a12.07,12.07,0,0,1,1,7.43Q75,582.77,60.6,648.07c-.28,1.29-.4,2.62-.6,3.93a21.92,21.92,0,0,1-1-4.5Q59,528.25,59,409Z" transform="translate(-59 -140)"/><path class="cls-1" d="M112.36,598.88c2.45-11.23,4.75-21.9,7.1-32.57,4.08-18.52,8.3-37,12.13-55.58.5-2.42-.4-5.61-1.7-7.84-15-25.92-25.35-53.46-29.13-83.29C95,374,103.21,330.88,125.8,291c32.42-57.23,81.34-93,145.63-106.6,86.84-18.32,176.17,19.48,224.25,93.72,79,122,17.22,282.9-123.87,321.6-55.74,15.28-109.55,8.6-160.55-18.81a16.65,16.65,0,0,0-12.68-1.57c-27.55,6.41-55.14,12.6-82.72,18.86C114.94,598.42,114,598.57,112.36,598.88Zm125.32-317c-7.26-1.08-14.34,1.87-20.44,8.31-19.15,20.22-23.5,43.63-15.59,69.82,5.64,18.7,17.08,34.12,28.29,49.65,32.33,44.84,74.16,75.83,128.58,88.86,20.76,5,40,3.91,58.15-8.73,14.15-9.86,18.64-23.68,18.78-39.69,0-2.5-1.76-6.28-3.81-7.33q-24.21-12.36-48.91-23.73c-6.24-2.87-8.52-1.59-12.82,3.84q-8.36,10.59-17,21c-4.56,5.47-6.87,5.83-13.49,3.13-33.72-13.74-59.7-36.43-78.46-67.54-4.53-7.52-4.16-9,1.8-15.66A207.18,207.18,0,0,0,275.91,347c2.52-3.51,2.13-7.4.44-11.4-5.63-13.33-11-26.78-16.58-40.12C254.62,283.17,252.6,281.92,237.68,281.92Z" transform="translate(-59 -140)"/><path d="M237.68,281.92c14.92,0,16.94,1.25,22.09,13.57,5.59,13.34,11,26.79,16.58,40.12,1.69,4,2.08,7.89-.44,11.4a207.18,207.18,0,0,1-13.14,16.8c-6,6.69-6.33,8.14-1.8,15.66,18.76,31.11,44.74,53.8,78.46,67.54,6.62,2.7,8.93,2.34,13.49-3.13q8.63-10.36,17-21c4.3-5.43,6.58-6.71,12.82-3.84q24.7,11.34,48.91,23.73c2.05,1.05,3.83,4.83,3.81,7.33-.14,16-4.63,29.83-18.78,39.69-18.17,12.64-37.39,13.7-58.15,8.73-54.42-13-96.25-44-128.58-88.86-11.21-15.53-22.65-30.95-28.29-49.65-7.91-26.19-3.56-49.6,15.59-69.82C223.34,283.79,230.42,280.84,237.68,281.92Z" transform="translate(-59 -140)"/></svg>